<svg xmlns="http://www.w3.org/2000/svg" width="124.7582" height="113.3858" viewBox="0 0 124.7582 113.3858"><defs><style>.cls-1{fill:#fff;fill-rule:evenodd;}</style></defs><g id="Camada_2" data-name="Camada 2"><g id="Layer_1" data-name="Layer 1"><path class="cls-1" d="M115.7083,79.9241c-.0279,7.0106-6.1371,17.7086-9.8373,17.7929-3.658.0828-11.9078-5.9889-13.2094-6.4554a2.27,2.27,0,0,0-2.7432.453,106.88,106.88,0,0,1-10.1111,8.237,1.5433,1.5433,0,0,0,.2761,2.4527,67.67,67.67,0,0,0,23.5117,10.8868,4.5954,4.5954,0,0,0,3.3683-.5988c5.7444-4.6045,13.9821-18.88,16.486-26.0547,1.7306-4.9582,1.4318-9.3378.872-11.0961-4.73-14.866-16.0571-32.4567-32.4814-48.249a1.3983,1.3983,0,0,0-1.2031-.4115,21.2547,21.2547,0,0,0-3.837.9421.6689.6689,0,0,0-.237,1.0878c16.4438,17.9365,29.1882,40.6079,29.1454,51.0132"/><path class="cls-1" d="M37.2282,93.3864c-4.3947-.1461-18.762-14.6955-19.1-17.735-.5966-5.375,5.5209-15.6629,8.2385-20.4571.7463-1.312.5763-1.95.0541-2.5942-2.482-3.0606-5.8933-7.8983-7.57-10.3442a1.6613,1.6613,0,0,0-2.4346-.2153C9.7146,48.6321,1.6882,64.7067.1669,72.2965A11.29,11.29,0,0,0,.711,78.1582c4.3426,9.5643,21.2394,27.9041,29.82,33.0323,2.364,1.41,8.0037,1.914,10.7.7839,27.56-11.564,54.3441-37.3093,61.1861-48.8214a1.4459,1.4459,0,0,0,.1889-1.4573,42.0983,42.0983,0,0,0-3.0276-5.2268.8719.8719,0,0,0-1.4851-.0414C81.7973,76.3955,48.513,93.7625,37.2282,93.3864"/><path class="cls-1" d="M29.7737,14.5c.3821-3.3437,11.7054-8.7607,14.0121-8.7268,4.561.0707,12.1178,2.8672,14.8,3.8581a3.0291,3.0291,0,0,0,2.352-.1821,62.5343,62.5343,0,0,1,6.812-2.707c.4987-.1542.6206-.957.2354-1.15C63.4965,3.3429,54.1174.5569,45.5013.0484a12.6056,12.6056,0,0,0-3.7581.2039C34.63,1.5125,19.904,8.4538,16.1844,13.65a5.7148,5.7148,0,0,0-.4155,4.9957C21.0137,31.6932,38.94,55.4163,50.4519,64.9173a1.2727,1.2727,0,0,0,1.3543.1354,28.7058,28.7058,0,0,0,4.3577-2.6717.8039.8039,0,0,0,.0587-1.1632C43.45,46.8535,29.1492,19.96,29.7737,14.5"/><path class="cls-1" d="M90.6633,14.6843c3.37.7877,12.752,8.13,14.1762,10.2421.6591.9772.635,4.618.504,7.9481a3.1376,3.1376,0,0,0,.6532,2.6039c1.2985,1.5995,6.3177,7.8232,7.4943,9.6786a.7407.7407,0,0,0,1.3039.0564c.3852-.5869,1.2188-10.4264-1.4514-15.769-2.7889-5.5729-16.42-16.8381-23.7184-20.4781-3.7522-1.872-6.7707-1.3882-8.9466-1.1866-9.4318.88-24.2451,7.1084-34.9914,16.1761a.8109.8109,0,0,0-.3281,1.0051,18.3016,18.3016,0,0,0,1.9337,3.4557.7109.7109,0,0,0,.9758.2145C67.4533,17.43,81.8357,12.62,90.6633,14.6843"/></g></g></svg>