<svg xmlns="http://www.w3.org/2000/svg" width="475.184" height="113.3858" viewBox="0 0 475.184 113.3858"><defs><style>.cls-1,.cls-2{fill:#fff;}.cls-1{fill-rule:evenodd;}</style></defs><g id="Camada_2" data-name="Camada 2"><g id="Layer_1" data-name="Layer 1"><path class="cls-1" d="M115.7083,79.9241c-.0279,7.0106-6.1371,17.7086-9.8373,17.7929-3.658.0828-11.9078-5.9889-13.2094-6.4554a2.27,2.27,0,0,0-2.7432.453,106.88,106.88,0,0,1-10.1111,8.237,1.5433,1.5433,0,0,0,.2761,2.4527,67.67,67.67,0,0,0,23.5117,10.8868,4.5954,4.5954,0,0,0,3.3683-.5988c5.7444-4.6045,13.9821-18.88,16.486-26.0547,1.7306-4.9582,1.4318-9.3378.872-11.0961-4.73-14.866-16.0571-32.4567-32.4814-48.249a1.3983,1.3983,0,0,0-1.2031-.4115,21.2547,21.2547,0,0,0-3.837.9421.6689.6689,0,0,0-.237,1.0878c16.4438,17.9365,29.1882,40.6079,29.1454,51.0132"/><path class="cls-1" d="M37.2282,93.3864c-4.3947-.1461-18.762-14.6955-19.1-17.735-.5966-5.375,5.5209-15.6629,8.2385-20.4571.7463-1.312.5763-1.95.0541-2.5942-2.482-3.0606-5.8933-7.8983-7.57-10.3442a1.6613,1.6613,0,0,0-2.4346-.2153C9.7146,48.6321,1.6882,64.7067.1669,72.2965A11.29,11.29,0,0,0,.711,78.1582c4.3426,9.5643,21.2394,27.9041,29.82,33.0323,2.364,1.41,8.0037,1.914,10.7.7839,27.56-11.564,54.3441-37.3093,61.1861-48.8214a1.4459,1.4459,0,0,0,.1889-1.4573,42.0983,42.0983,0,0,0-3.0276-5.2268.8719.8719,0,0,0-1.4851-.0414C81.7973,76.3955,48.513,93.7625,37.2282,93.3864"/><path class="cls-1" d="M29.7737,14.5c.3821-3.3437,11.7054-8.7607,14.0121-8.7268,4.561.0707,12.1178,2.8672,14.8,3.8581a3.0291,3.0291,0,0,0,2.352-.1821,62.5343,62.5343,0,0,1,6.812-2.707c.4987-.1542.6206-.957.2354-1.15C63.4965,3.3429,54.1174.5569,45.5013.0484a12.6056,12.6056,0,0,0-3.7581.2039C34.63,1.5125,19.904,8.4538,16.1844,13.65a5.7148,5.7148,0,0,0-.4155,4.9957C21.0137,31.6932,38.94,55.4163,50.4519,64.9173a1.2727,1.2727,0,0,0,1.3543.1354,28.7058,28.7058,0,0,0,4.3577-2.6717.8039.8039,0,0,0,.0587-1.1632C43.45,46.8535,29.1492,19.96,29.7737,14.5"/><path class="cls-1" d="M90.6633,14.6843c3.37.7877,12.752,8.13,14.1762,10.2421.6591.9772.635,4.618.504,7.9481a3.1376,3.1376,0,0,0,.6532,2.6039c1.2985,1.5995,6.3177,7.8232,7.4943,9.6786a.7407.7407,0,0,0,1.3039.0564c.3852-.5869,1.2188-10.4264-1.4514-15.769-2.7889-5.5729-16.42-16.8381-23.7184-20.4781-3.7522-1.872-6.7707-1.3882-8.9466-1.1866-9.4318.88-24.2451,7.1084-34.9914,16.1761a.8109.8109,0,0,0-.3281,1.0051,18.3016,18.3016,0,0,0,1.9337,3.4557.7109.7109,0,0,0,.9758.2145C67.4533,17.43,81.8357,12.62,90.6633,14.6843"/><path class="cls-2" d="M165.3715,43.1528a13.4531,13.4531,0,0,1,4.4844.6841,11.0828,11.0828,0,0,1,3.23,1.71,7.39,7.39,0,0,1,1.957,2.2608,5.8131,5.8131,0,0,1,.7413,2.3374.8444.8444,0,0,1-.2852.7407,1.09,1.09,0,0,1-.7412.2851h-2.66a1.5788,1.5788,0,0,1-.9687-.247,2.5131,2.5131,0,0,1-.5889-.6651,4.9489,4.9489,0,0,0-1.7285-1.6528,6.7419,6.7419,0,0,0-3.44-.7031,8.2305,8.2305,0,0,0-1.8808.209,5.4092,5.4092,0,0,0-1.5586.6079,3.21,3.21,0,0,0-1.0449.9692,2.2791,2.2791,0,0,0-.38,1.292,2.5493,2.5493,0,0,0,.3613,1.4248,2.83,2.83,0,0,0,1.2158.95,12.4594,12.4594,0,0,0,2.2608.7407q1.4063.342,3.4961.7984a24.597,24.597,0,0,1,3.9336,1.1587,9.1653,9.1653,0,0,1,2.6972,1.5961,5.9528,5.9528,0,0,1,1.5586,2.1465,7.0882,7.0882,0,0,1,.5127,2.7744,6.7771,6.7771,0,0,1-.76,3.1729,7.3023,7.3023,0,0,1-2.1661,2.5078,10.955,10.955,0,0,1-3.458,1.6533,16.2056,16.2056,0,0,1-4.5976.6074A15.831,15.831,0,0,1,161.4956,70a11.902,11.902,0,0,1-3.44-1.4825A8.163,8.163,0,0,1,155.644,66.18a6.1322,6.1322,0,0,1-1.0264-3.04.838.838,0,0,1,.2852-.74,1.0842,1.0842,0,0,1,.7412-.2851h2.6592a1.7874,1.7874,0,0,1,.9883.2275,1.7208,1.7208,0,0,1,.57.6846,7.2176,7.2176,0,0,0,.6455.9873,3.4926,3.4926,0,0,0,1.0264.874,6.1806,6.1806,0,0,0,1.6152.627,9.93,9.93,0,0,0,2.4131.247,13.8387,13.8387,0,0,0,2.2031-.1708,6.4283,6.4283,0,0,0,1.8623-.5694,3.9828,3.9828,0,0,0,1.292-.9883,2.1991,2.1991,0,0,0,.4941-1.4629,1.8535,1.8535,0,0,0-.5322-1.3681,4.27,4.27,0,0,0-1.6152-.9121,22.3969,22.3969,0,0,0-2.6787-.7217q-1.5953-.3428-3.6856-.874a19.77,19.77,0,0,1-3.3252-1.083,7.8375,7.8375,0,0,1-2.3564-1.5391,5.7461,5.7461,0,0,1-1.3867-2.147,8.5157,8.5157,0,0,1-.4561-2.9448,6.668,6.668,0,0,1,.76-3.1543,7.5055,7.5055,0,0,1,2.0908-2.47,10.2393,10.2393,0,0,1,3.1728-1.6153A12.9764,12.9764,0,0,1,165.3715,43.1528Z"/><path class="cls-2" d="M180.5337,55.2368a5.2231,5.2231,0,0,1,.7031-1.71,6.5041,6.5041,0,0,1,1.5576-1.71,8.43,8.43,0,0,1,2.47-1.311,10.2665,10.2665,0,0,1,3.4014-.5132,11.1375,11.1375,0,0,1,3.4961.5132,7.58,7.58,0,0,1,2.6787,1.501,6.5265,6.5265,0,0,1,1.7295,2.4887,9.1257,9.1257,0,0,1,.6074,3.439V69.1069a1.0371,1.0371,0,0,1-1.0254,1.0254h-2.8887a1.0371,1.0371,0,0,1-1.0253-1.0254V67.853a6.4263,6.4263,0,0,1-2.2989,1.8808,8.2719,8.2719,0,0,1-3.8193.7783,9.1087,9.1087,0,0,1-2.9258-.4365,6.0146,6.0146,0,0,1-2.166-1.2353,5.5239,5.5239,0,0,1-1.35-1.8809,5.8516,5.8516,0,0,1-.4746-2.375,4.95,4.95,0,0,1,1.8623-4.1035,10.782,10.782,0,0,1,4.9775-2.0146l6.1944-1.0635a2.3985,2.3985,0,0,0-1.0264-2.2041,4.6954,4.6954,0,0,0-2.5459-.646,3.374,3.374,0,0,0-1.4815.2661,4.4448,4.4448,0,0,0-1.0263.7222,2.2554,2.2554,0,0,1-.627.4179,1.6824,1.6824,0,0,1-.6269.1138H181.37a.9608.9608,0,0,1-.6465-.228A.5921.5921,0,0,1,180.5337,55.2368Zm6.3457,10.7158a6.7738,6.7738,0,0,0,2.2988-.3613,5.106,5.106,0,0,0,1.6914-.9688,4.0583,4.0583,0,0,0,1.0264-1.3682,3.7622,3.7622,0,0,0,.3418-1.5576v-.38l-5.168.9121a5.3454,5.3454,0,0,0-2.2422.7784,1.6433,1.6433,0,0,0-.6836,1.3877,1.2408,1.2408,0,0,0,.8164,1.1777A4.5191,4.5191,0,0,0,186.8794,65.9526Z"/><path class="cls-2" d="M207.1714,69.1069a1.0373,1.0373,0,0,1-1.0254,1.0254h-2.8877a1.0371,1.0371,0,0,1-1.0264-1.0254V44.1787a1.038,1.038,0,0,1,1.0264-1.0259h2.8877a1.0382,1.0382,0,0,1,1.0254,1.0259Z"/><path class="cls-2" d="M218.8755,69.8286a2.5112,2.5112,0,0,1-.418-.6465L210.82,51.665a.8132.8132,0,0,1-.0381-.2661,1.0371,1.0371,0,0,1,1.0254-1.0259h2.8506a1.0552,1.0552,0,0,1,.8359.3037,2.9606,2.9606,0,0,1,.418.6079l5.0537,11.78,5.0537-11.78a2.9606,2.9606,0,0,1,.418-.6079,1.0561,1.0561,0,0,1,.8369-.3037h2.85a1.0389,1.0389,0,0,1,1.0264,1.0259.87.87,0,0,1-.0381.2661l-7.6387,17.5171a2.5652,2.5652,0,0,1-.418.6465,1.0535,1.0535,0,0,1-.8359.3037h-2.5078A1.0521,1.0521,0,0,1,218.8755,69.8286Z"/><path class="cls-2" d="M233.8852,55.2368a5.2275,5.2275,0,0,1,.7031-1.71,6.5046,6.5046,0,0,1,1.5577-1.71,8.43,8.43,0,0,1,2.47-1.311,10.2665,10.2665,0,0,1,3.4014-.5132,11.1368,11.1368,0,0,1,3.496.5132,7.5807,7.5807,0,0,1,2.6788,1.501,6.5276,6.5276,0,0,1,1.73,2.4887,9.1277,9.1277,0,0,1,.6074,3.439V69.1069a1.0371,1.0371,0,0,1-1.0254,1.0254h-2.8887a1.0371,1.0371,0,0,1-1.0254-1.0254V67.853a6.4251,6.4251,0,0,1-2.2988,1.8808,8.2722,8.2722,0,0,1-3.8193.7783,9.1083,9.1083,0,0,1-2.9258-.4365,6.0138,6.0138,0,0,1-2.166-1.2353,5.5255,5.5255,0,0,1-1.35-1.8809,5.8516,5.8516,0,0,1-.4746-2.375,4.95,4.95,0,0,1,1.8623-4.1035,10.7824,10.7824,0,0,1,4.9776-2.0146l6.1943-1.0635a2.3987,2.3987,0,0,0-1.0263-2.2041,4.6956,4.6956,0,0,0-2.5459-.646,3.374,3.374,0,0,0-1.4815.2661,4.4432,4.4432,0,0,0-1.0264.7222,2.2565,2.2565,0,0,1-.6269.4179,1.6825,1.6825,0,0,1-.627.1138h-3.5341a.9606.9606,0,0,1-.6465-.228A.5919.5919,0,0,1,233.8852,55.2368Zm6.3457,10.7158a6.7734,6.7734,0,0,0,2.2988-.3613,5.1065,5.1065,0,0,0,1.6915-.9688,4.0567,4.0567,0,0,0,1.0263-1.3682,3.7606,3.7606,0,0,0,.3418-1.5576v-.38l-5.1679.9121a5.3449,5.3449,0,0,0-2.2422.7784,1.6433,1.6433,0,0,0-.6836,1.3877,1.2408,1.2408,0,0,0,.8164,1.1777A4.5186,4.5186,0,0,0,240.2309,65.9526Z"/><path class="cls-2" d="M263.1831,49.9926a8.9091,8.9091,0,0,1,2.1093.228,8.2235,8.2235,0,0,1,1.6338.57,6.2732,6.2732,0,0,1,1.1973.7407,6.8087,6.8087,0,0,1,.7979.7412V44.1787a1.038,1.038,0,0,1,1.0263-1.0259h2.8877a1.04,1.04,0,0,1,1.0264,1.0259V69.1069a1.0389,1.0389,0,0,1-1.0264,1.0254h-2.8877a1.0371,1.0371,0,0,1-1.0263-1.0254v-.874a6.81,6.81,0,0,1-.7979.74,6.2241,6.2241,0,0,1-1.1973.7412,8.192,8.192,0,0,1-1.6338.57,8.8793,8.8793,0,0,1-2.1093.2275,7.832,7.832,0,0,1-3.4385-.74,8.1373,8.1373,0,0,1-2.6221-1.9765,9.4839,9.4839,0,0,1-1.71-2.85,10.4917,10.4917,0,0,1-.7032-3.3632q-.0381-.57-.038-1.33c0-.5059.0126-.95.038-1.33a10.4984,10.4984,0,0,1,.7032-3.3628,9.4945,9.4945,0,0,1,1.71-2.85,8.1376,8.1376,0,0,1,2.6221-1.9761A7.82,7.82,0,0,1,263.1831,49.9926ZM259.65,59.1889a9.9322,9.9322,0,0,0,0,2.1279,5.0315,5.0315,0,0,0,1.5195,3.5528,4.746,4.746,0,0,0,3.1543,1.083,4.6218,4.6218,0,0,0,3.1348-1.1026,4.53,4.53,0,0,0,1.4629-3.1533,13.7447,13.7447,0,0,0,0-2.8887,4.5966,4.5966,0,0,0-1.4629-3.1152,4.5308,4.5308,0,0,0-3.1348-1.14,4.7434,4.7434,0,0,0-3.1543,1.083A5.0335,5.0335,0,0,0,259.65,59.1889Z"/><path class="cls-2" d="M287.8071,49.9926a10.54,10.54,0,0,1,3.7812.646,9.0183,9.0183,0,0,1,2.9258,1.7861,8.9059,8.9059,0,0,1,1.9756,2.66,8.6726,8.6726,0,0,1,.8555,3.2681,8.4363,8.4363,0,0,1,.0381.874v2.1084a8.2366,8.2366,0,0,1-.0381.8555,9.4842,9.4842,0,0,1-.874,3.2675,8.3953,8.3953,0,0,1-1.9571,2.6407,9.1711,9.1711,0,0,1-2.9258,1.7675,11.3978,11.3978,0,0,1-7.5625,0A9.139,9.139,0,0,1,281.1,68.0991a8.3649,8.3649,0,0,1-1.9571-2.6407,9.44,9.44,0,0,1-.874-3.2675q-.0381-.3429-.0576-.8555c-.0127-.3418-.0186-.69-.0186-1.0449s.0059-.709.0186-1.0635.0322-.6465.0576-.874a8.69,8.69,0,0,1,.8545-3.2681,8.8921,8.8921,0,0,1,1.9766-2.66,8.9872,8.9872,0,0,1,2.9257-1.7861A10.5336,10.5336,0,0,1,287.8071,49.9926Zm4.5976,8.55a4.9679,4.9679,0,0,0-.5507-1.9565,3.7015,3.7015,0,0,0-1.083-1.2354,3.9106,3.9106,0,0,0-1.4063-.6269,7.1881,7.1881,0,0,0-3.1162,0,3.8984,3.8984,0,0,0-1.4053.6269,3.68,3.68,0,0,0-1.083,1.2354,4.951,4.951,0,0,0-.5517,1.9565q-.0381.3046-.0567.76-.019.4571-.0185.95c0,.33.0058.6523.0185.9687s.0313.5645.0567.7412a4.9417,4.9417,0,0,0,.5517,1.9571,3.68,3.68,0,0,0,1.083,1.2353,3.9,3.9,0,0,0,1.4053.627,7.1881,7.1881,0,0,0,3.1162,0,3.9126,3.9126,0,0,0,1.4063-.627,3.7021,3.7021,0,0,0,1.083-1.2353,4.9585,4.9585,0,0,0,.5507-1.9571,5.5289,5.5289,0,0,0,.0381-.7412V59.3022A6.29,6.29,0,0,0,292.4047,58.5424Z"/><path class="cls-2" d="M310.9487,54.9326a4.5179,4.5179,0,0,0-3.2871,1.0073,4.5151,4.5151,0,0,0-1.0078,3.2871v9.88a1.0371,1.0371,0,0,1-1.0254,1.0254h-2.8877a1.0371,1.0371,0,0,1-1.0264-1.0254V51.3989a1.0371,1.0371,0,0,1,1.0264-1.0259h2.8877a1.0371,1.0371,0,0,1,1.0254,1.0259v.874a7.6921,7.6921,0,0,1,2.1093-1.4063,7.4027,7.4027,0,0,1,2.9454-.4936h1.71a1.0371,1.0371,0,0,1,1.0254,1.0259v2.5078a1.0373,1.0373,0,0,1-1.0254,1.0259Z"/><path class="cls-2" d="M342.1089,61.6967a1.0968,1.0968,0,0,1,.3994-.7412,1.1346,1.1346,0,0,1,.7031-.2471H346.29a1.0836,1.0836,0,0,1,.74.2852.8409.8409,0,0,1,.2852.7412,9.7288,9.7288,0,0,1-.7783,3.1152,8.1494,8.1494,0,0,1-2.0332,2.8125,10.7116,10.7116,0,0,1-3.458,2.0518,14.2,14.2,0,0,1-5.0547.7978,12.8118,12.8118,0,0,1-4.6358-.7783,9.8678,9.8678,0,0,1-3.42-2.166,9.6634,9.6634,0,0,1-2.1845-3.3252,13.68,13.68,0,0,1-.9317-4.2178q-.0762-1.4442-.0752-3.1918t.0752-3.1924a13.6769,13.6769,0,0,1,.9317-4.2178,9.6681,9.6681,0,0,1,2.1845-3.3252,9.8751,9.8751,0,0,1,3.42-2.166,12.8116,12.8116,0,0,1,4.6358-.7788,14.2112,14.2112,0,0,1,5.0547.7978,10.7142,10.7142,0,0,1,3.458,2.0523,8.1026,8.1026,0,0,1,2.0332,2.831,9.8855,9.8855,0,0,1,.7783,3.0967.8419.8419,0,0,1-.2852.7412,1.0855,1.0855,0,0,1-.74.2852h-3.0781a1.2131,1.2131,0,0,1-.7227-.2471,1.0683,1.0683,0,0,1-.4179-.7412,4.1739,4.1739,0,0,0-.5313-1.4819,4.57,4.57,0,0,0-1.1406-1.292,5.8766,5.8766,0,0,0-1.8242-.9312,8.33,8.33,0,0,0-2.584-.3608,6.7281,6.7281,0,0,0-2.584.456,5.4424,5.4424,0,0,0-1.8428,1.2158,5.1854,5.1854,0,0,0-1.14,1.8243,7.7624,7.7624,0,0,0-.4756,2.2417q-.0762,1.445-.0752,3.1924t.0752,3.1918a7.6206,7.6206,0,0,0,.4756,2.2608,5.1951,5.1951,0,0,0,1.14,1.8047,5.435,5.435,0,0,0,1.8428,1.2158,6.7187,6.7187,0,0,0,2.584.456,8.3015,8.3015,0,0,0,2.584-.36,6.1432,6.1432,0,0,0,1.8437-.9316,4.449,4.449,0,0,0,1.1592-1.292A4.1818,4.1818,0,0,0,342.1089,61.6967Z"/><path class="cls-2" d="M351.4184,55.2368a5.2275,5.2275,0,0,1,.7031-1.71,6.5046,6.5046,0,0,1,1.5577-1.71,8.43,8.43,0,0,1,2.47-1.311,10.2665,10.2665,0,0,1,3.4014-.5132,11.1379,11.1379,0,0,1,3.4961.5132,7.5811,7.5811,0,0,1,2.6787,1.501,6.5276,6.5276,0,0,1,1.73,2.4887,9.1257,9.1257,0,0,1,.6074,3.439V69.1069a1.0371,1.0371,0,0,1-1.0254,1.0254h-2.8887a1.0371,1.0371,0,0,1-1.0254-1.0254V67.853a6.4251,6.4251,0,0,1-2.2988,1.8808,8.2722,8.2722,0,0,1-3.8193.7783,9.1083,9.1083,0,0,1-2.9258-.4365,6.0138,6.0138,0,0,1-2.166-1.2353,5.5239,5.5239,0,0,1-1.35-1.8809,5.85,5.85,0,0,1-.4747-2.375,4.95,4.95,0,0,1,1.8623-4.1035,10.7824,10.7824,0,0,1,4.9776-2.0146l6.1943-1.0635a2.3987,2.3987,0,0,0-1.0263-2.2041,4.6954,4.6954,0,0,0-2.5459-.646,3.374,3.374,0,0,0-1.4815.2661,4.4432,4.4432,0,0,0-1.0264.7222,2.2565,2.2565,0,0,1-.6269.4179,1.6825,1.6825,0,0,1-.627.1138h-3.5341a.9608.9608,0,0,1-.6465-.228A.5919.5919,0,0,1,351.4184,55.2368Zm6.3457,10.7158a6.774,6.774,0,0,0,2.2989-.3613,5.106,5.106,0,0,0,1.6914-.9688,4.0567,4.0567,0,0,0,1.0263-1.3682,3.7606,3.7606,0,0,0,.3418-1.5576v-.38l-5.1679.9121a5.3449,5.3449,0,0,0-2.2422.7784,1.6433,1.6433,0,0,0-.6836,1.3877,1.2408,1.2408,0,0,0,.8164,1.1777A4.5186,4.5186,0,0,0,357.7641,65.9526Z"/><path class="cls-2" d="M372.1284,60.2524a12.2344,12.2344,0,0,1,.6465-4.0088,9.6561,9.6561,0,0,1,1.8613-3.2681,8.7241,8.7241,0,0,1,2.9453-2.1845,9.0916,9.0916,0,0,1,3.8574-.7984,9.2926,9.2926,0,0,1,3.8565.7793,9.0271,9.0271,0,0,1,2.9453,2.09,9.2771,9.2771,0,0,1,1.8808,3.0781,10.4294,10.4294,0,0,1,.6651,3.7051v1.71A1.0371,1.0371,0,0,1,389.76,62.38H377.0688a3.1762,3.1762,0,0,0,.36,1.5391,3.4282,3.4282,0,0,0,.97,1.1211,4.2626,4.2626,0,0,0,1.4053.6836,5.9126,5.9126,0,0,0,1.6347.2285,6.525,6.525,0,0,0,1.9756-.2471,4.1123,4.1123,0,0,0,1.2539-.6269,3.8239,3.8239,0,0,1,.6846-.418,1.8638,1.8638,0,0,1,.7217-.1143h3.04a1.0542,1.0542,0,0,1,.7412.3037.851.851,0,0,1,.2852.7227,3.1453,3.1453,0,0,1-.59,1.3682,6.5273,6.5273,0,0,1-1.6523,1.6337,10.667,10.667,0,0,1-2.7178,1.3682,11.2315,11.2315,0,0,1-3.7422.5693,9.71,9.71,0,0,1-3.8574-.74,8.2107,8.2107,0,0,1-2.9453-2.1094,9.4433,9.4433,0,0,1-1.8613-3.249A12.7156,12.7156,0,0,1,372.1284,60.2524Zm9.31-5.7a4.9006,4.9006,0,0,0-1.8808.3232,4.1515,4.1515,0,0,0-1.3116.836,3.7011,3.7011,0,0,0-.8173,1.14,4.2553,4.2553,0,0,0-.36,1.1968h8.5879a6.5869,6.5869,0,0,0-.2852-1.1968,3.1178,3.1178,0,0,0-.6835-1.14,3.5188,3.5188,0,0,0-1.254-.836A5.2588,5.2588,0,0,0,381.4389,54.5527Z"/><path class="cls-2" d="M401.5786,62.9887a2.7221,2.7221,0,0,0,.6269,1.8809,3.0633,3.0633,0,0,0,2.3369.7031H406.86a1.0371,1.0371,0,0,1,1.0264,1.0254v2.5088a1.0371,1.0371,0,0,1-1.0264,1.0254h-2.8115a7.9316,7.9316,0,0,1-5.4912-1.7285q-1.9189-1.7286-1.919-5.3008v-8.17H394.13a1.0373,1.0373,0,0,1-1.0263-1.0259V51.3989A1.0371,1.0371,0,0,1,394.13,50.373h2.5078V44.1787a1.0382,1.0382,0,0,1,1.0264-1.0259h2.8877a1.04,1.04,0,0,1,1.0264,1.0259V50.373H406.48a1.0371,1.0371,0,0,1,1.0264,1.0259v2.5078a1.0373,1.0373,0,0,1-1.0264,1.0259h-4.9013Z"/><path class="cls-2" d="M411.61,55.2368a5.2257,5.2257,0,0,1,.7032-1.71,6.5024,6.5024,0,0,1,1.5576-1.71,8.43,8.43,0,0,1,2.47-1.311,10.2665,10.2665,0,0,1,3.4014-.5132,11.1375,11.1375,0,0,1,3.4961.5132,7.5811,7.5811,0,0,1,2.6787,1.501,6.5276,6.5276,0,0,1,1.73,2.4887,9.1257,9.1257,0,0,1,.6074,3.439V69.1069a1.0371,1.0371,0,0,1-1.0254,1.0254h-2.8887a1.0371,1.0371,0,0,1-1.0254-1.0254V67.853a6.4251,6.4251,0,0,1-2.2988,1.8808,8.2722,8.2722,0,0,1-3.8193.7783,9.1083,9.1083,0,0,1-2.9258-.4365,6.0146,6.0146,0,0,1-2.166-1.2353,5.5239,5.5239,0,0,1-1.35-1.8809,5.8517,5.8517,0,0,1-.4747-2.375,4.95,4.95,0,0,1,1.8624-4.1035,10.7815,10.7815,0,0,1,4.9775-2.0146l6.1943-1.0635a2.3987,2.3987,0,0,0-1.0263-2.2041,4.6954,4.6954,0,0,0-2.5459-.646,3.374,3.374,0,0,0-1.4815.2661,4.4427,4.4427,0,0,0-1.0263.7222,2.2568,2.2568,0,0,1-.627.4179,1.6825,1.6825,0,0,1-.627.1138h-3.5341a.9608.9608,0,0,1-.6465-.228A.5919.5919,0,0,1,411.61,55.2368Zm6.3457,10.7158a6.774,6.774,0,0,0,2.2989-.3613,5.106,5.106,0,0,0,1.6914-.9688,4.0567,4.0567,0,0,0,1.0263-1.3682,3.7606,3.7606,0,0,0,.3418-1.5576v-.38l-5.1679.9121a5.3449,5.3449,0,0,0-2.2422.7784,1.6433,1.6433,0,0,0-.6836,1.3877,1.2408,1.2408,0,0,0,.8164,1.1777A4.5189,4.5189,0,0,0,417.9555,65.9526Z"/><path class="cls-2" d="M451.852,69.1069a1.0371,1.0371,0,0,1-1.0264,1.0254H447.938a1.0389,1.0389,0,0,1-1.0264-1.0254V59.4545a5.7853,5.7853,0,0,0-1.0635-3.6479,3.8842,3.8842,0,0,0-3.2685-1.3677,3.9389,3.9389,0,0,0-3.1729,1.3677,5.4562,5.4562,0,0,0-1.1592,3.6479v9.6524a1.0371,1.0371,0,0,1-1.0254,1.0254h-2.8877a1.0371,1.0371,0,0,1-1.0263-1.0254V51.3989a1.0371,1.0371,0,0,1,1.0263-1.0259h2.8877a1.0371,1.0371,0,0,1,1.0254,1.0259v.874a8.5176,8.5176,0,0,1,2.3184-1.6343,7.1593,7.1593,0,0,1,3.1543-.646,9.2146,9.2146,0,0,1,3.876.7222,6.6859,6.6859,0,0,1,2.5078,1.938,7.4345,7.4345,0,0,1,1.3486,2.831,14.1069,14.1069,0,0,1,.3994,3.4Z"/><path class="cls-2" d="M465.6079,49.9926a10.54,10.54,0,0,1,3.7812.646,9.0183,9.0183,0,0,1,2.9258,1.7861,8.9059,8.9059,0,0,1,1.9756,2.66,8.6744,8.6744,0,0,1,.8555,3.2681,8.44,8.44,0,0,1,.038.874v2.1084a8.24,8.24,0,0,1-.038.8555,9.482,9.482,0,0,1-.8741,3.2675,8.3935,8.3935,0,0,1-1.957,2.6407,9.1711,9.1711,0,0,1-2.9258,1.7675,11.3978,11.3978,0,0,1-7.5625,0,9.1406,9.1406,0,0,1-2.9258-1.7675,8.3661,8.3661,0,0,1-1.957-2.6407,9.44,9.44,0,0,1-.874-3.2675q-.0381-.3429-.0576-.8555c-.0127-.3418-.0186-.69-.0186-1.0449s.0059-.709.0186-1.0635.0322-.6465.0576-.874a8.69,8.69,0,0,1,.8545-3.2681,8.8935,8.8935,0,0,1,1.9765-2.66,8.9887,8.9887,0,0,1,2.9258-1.7861A10.5336,10.5336,0,0,1,465.6079,49.9926Zm4.5976,8.55a4.9662,4.9662,0,0,0-.5508-1.9565,3.6993,3.6993,0,0,0-1.083-1.2354,3.9094,3.9094,0,0,0-1.4062-.6269,7.1881,7.1881,0,0,0-3.1162,0,3.8977,3.8977,0,0,0-1.4053.6269,3.68,3.68,0,0,0-1.083,1.2354,4.9526,4.9526,0,0,0-.5518,1.9565q-.038.3046-.0566.76-.019.4571-.0186.95c0,.33.0059.6523.0186.9687s.0313.5645.0566.7412a4.9433,4.9433,0,0,0,.5518,1.9571,3.68,3.68,0,0,0,1.083,1.2353,3.9,3.9,0,0,0,1.4053.627,7.1881,7.1881,0,0,0,3.1162,0,3.9113,3.9113,0,0,0,1.4062-.627,3.7,3.7,0,0,0,1.083-1.2353,4.9569,4.9569,0,0,0,.5508-1.9571,5.5289,5.5289,0,0,0,.0381-.7412V59.3022A6.29,6.29,0,0,0,470.2055,58.5424Z"/></g></g></svg>